# generated from PmQm by Jehee Lee
:FULLY-SPECIFIED
:DEGREES
130
root 15.6024 39.6739 3.37362 -67.3098 87.4469 -60.6971
RightUpLeg 10.6536 0.628907 0.979801
RightLeg 1.80077 7.15323 -1.15092
RightFoot -4.13283 -0.479154 6.11563
RightToes 4.07452e-010 -1.59028e-015 9.93923e-017
Spine -11.101 -0.352232 -2.65369
Spine1 0.723651 -0.634993 2.31822
HEad -21.7116 -7.17041 22.6486
LeftShoulder1 9.93923e-017 -0 1.22299e-017
LeftArm 130.891 -78.8748 -155.396
LeftForeArm 40.4146 -1.65675 -2.06435
LeftHand -1.83342 1.03028 33.7911
RightShoulder 1.98785e-016 -4.96962e-017 1.55301e-017
RightArm 48.2932 74.6242 73.7005
RightForeArm 36.1466 11.5434 -5.77154
RightHand 7.83147 -22.5257 -36.7486
LeftUpLeg 6.53523 -1.23276 0.714259
LeftLeg 10.4735 -1.19841 4.214
LeftFoot -8.40566 0.0866033 -2.53957
LeftToes 1.53707e-010 -1.11459e-010 1.58109e-011
131
root 15.7143 39.6651 3.38113 -69.1485 87.5258 -62.5568
RightUpLeg 10.7937 0.677739 1.01758
RightLeg 1.86346 6.92339 -1.24132
RightFoot -4.28895 -0.475003 6.17038
RightToes 4.07452e-010 -1.59028e-015 9.93923e-017
Spine -11.2872 -0.257128 -2.6439
Spine1 0.474639 -0.4837 2.0347
HEad -19.1555 -8.16709 22.9439
LeftShoulder1 9.93923e-017 -0 1.22299e-017
LeftArm 146.38 -79.6323 -169.298
LeftForeArm 38.385 -1.32282 -1.19961
LeftHand -1.85711 1.04422 34.257
RightShoulder 1.98785e-016 -4.96962e-017 1.55301e-017
RightArm 41.8309 77.0205 64.9575
RightForeArm 34.6772 12.0819 -7.17723
RightHand 7.83582 -22.4889 -36.8698
LeftUpLeg 6.73959 -1.13222 0.711313
LeftLeg 10.36 -1.37713 4.20378
LeftFoot -8.53804 0.0840046 -2.56337
LeftToes 1.53707e-010 -1.11459e-010 1.58109e-011
132
root 15.8344 39.6553 3.39516 -72.3052 87.5881 -65.7146
RightUpLeg 11.0315 0.760852 1.10963
RightLeg 1.82161 6.65231 -1.33007
RightFoot -4.44172 -0.47501 6.27941
RightToes 4.07452e-010 -1.59028e-015 9.93923e-017
Spine -11.2096 -0.190382 -2.4504
Spine1 -0.176125 -0.340995 1.4717
HEad -16.4604 -9.23505 23.0127
LeftShoulder1 9.93923e-017 -0 1.22299e-017
LeftArm 161.51 -79.6894 177.122
LeftForeArm 37.4712 -1.03256 -0.360904
LeftHand -1.93333 0.839635 33.9693
RightShoulder 1.98785e-016 -4.96962e-017 1.55301e-017
RightArm 32.0928 78.7631 53.5447
RightForeArm 33.4271 12.3672 -8.39542
RightHand 7.96248 -22.6209 -37.2491
LeftUpLeg 6.97841 -0.917874 0.792282
LeftLeg 10.2212 -1.69782 4.16974
LeftFoot -8.7053 0.0814234 -2.58817
LeftToes 1.53707e-010 -1.11459e-010 1.58109e-011
133
root 15.9561 39.6473 3.4084 -77.2559 87.6511 -70.6895
RightUpLeg 11.37 0.81171 1.19346
RightLeg 1.56884 6.37219 -1.36013
RightFoot -4.56785 -0.477326 6.40315
RightToes 4.07452e-010 -1.59028e-015 9.93923e-017
Spine -11.0193 -0.186166 -2.17
Spine1 -1.0099 -0.258986 0.77006
HEad -13.7018 -10.2662 22.7773
LeftShoulder1 9.93923e-017 -0 1.22299e-017
LeftArm 174.016 -79.3288 165.439
LeftForeArm 36.2084 -0.666025 0.683868
LeftHand -1.96302 0.665941 33.2219
RightShoulder 1.98785e-016 -4.96962e-017 1.55301e-017
RightArm 18.3819 79.9084 39.4069
RightForeArm 33.6163 11.9994 -9.07471
RightHand 8.00217 -22.4624 -37.9114
LeftUpLeg 7.20953 -0.624985 0.909843
LeftLeg 10.0251 -2.17375 4.12167
LeftFoot -8.87052 0.0787201 -2.5779
LeftToes 1.53707e-010 -1.11459e-010 1.58109e-011
134
root 16.0742 39.6434 3.41805 -82.4407 87.7431 -75.9896
RightUpLeg 11.6583 0.794217 1.18745
RightLeg 1.2102 6.144 -1.32594
RightFoot -4.66812 -0.475772 6.45826
RightToes 4.07452e-010 -1.59028e-015 9.93923e-017
Spine -11.1321 -0.206835 -1.99898
Spine1 -1.54734 -0.212902 0.17964
HEad -11.0987 -10.9544 22.3393
LeftShoulder1 9.93923e-017 -0 1.22299e-017
LeftArm -176.281 -78.8418 155.029
LeftForeArm 33.353 -0.130153 2.09431
LeftHand -1.86605 0.754697 32.3817
RightShoulder 1.98785e-016 -4.96962e-017 1.55301e-017
RightArm 1.26947 80.3316 22.6352
RightForeArm 33.671 11.1464 -9.48404
RightHand 8.06214 -22.2356 -38.8891
LeftUpLeg 7.39173 -0.267659 0.986509
LeftLeg 9.72021 -2.74051 4.0394
LeftFoot -8.98125 0.072785 -2.52162
LeftToes 1.53707e-010 -1.11459e-010 1.58109e-011
135
root 16.1893 39.6413 3.42997 -86.1649 87.8583 -79.8788
RightUpLeg 11.813 0.743257 1.10348
RightLeg 0.972985 6.01709 -1.27474
RightFoot -4.77164 -0.468172 6.43447
RightToes 4.07452e-010 -1.59028e-015 9.93923e-017
Spine -11.4324 -0.259233 -2.01754
Spine1 -1.9507 -0.215403 -0.165896
HEad -8.64527 -11.1573 21.7185
LeftShoulder1 9.93923e-017 -0 1.22299e-017
LeftArm -168.072 -78.3409 145.225
LeftForeArm 29.7772 0.466462 3.6318
LeftHand -1.73801 0.928543 31.6119
RightShoulder 1.98785e-016 -4.96962e-017 1.55301e-017
RightArm -14.9849 79.9515 6.97754
RightForeArm 32.1498 10.1793 -10.037
RightHand 8.13168 -22.2255 -39.3244
LeftUpLeg 7.5703 0.153855 1.04428
LeftLeg 9.34283 -3.33601 3.88933
LeftFoot -9.04478 0.0665648 -2.45938
LeftToes 1.53707e-010 -1.11459e-010 1.58109e-011
136
root 16.3001 39.6369 3.44929 -87.8612 87.9416 -81.6752
RightUpLeg 11.9175 0.735629 1.05575
RightLeg 0.932062 5.95282 -1.2683
RightFoot -4.89271 -0.4603 6.42009
RightToes 4.07452e-010 -1.59028e-015 9.93923e-017
Spine -11.3905 -0.429502 -2.16476
Spine1 -2.76097 -0.364762 -0.255895
HEad -6.09311 -10.973 20.7878
LeftShoulder1 9.93923e-017 -0 1.22299e-017
LeftArm -159.825 -77.7932 136.286
LeftForeArm 26.8428 0.9401 4.85725
LeftHand -1.66354 0.978098 30.788
RightShoulder 1.98785e-016 -4.96962e-017 1.55301e-017
RightArm -27.0262 79.2849 -4.51113
RightForeArm 30.3056 9.18451 -10.6835
RightHand 7.97452 -22.1226 -38.6943
LeftUpLeg 7.80588 0.582302 1.16444
LeftLeg 9.01878 -3.88549 3.69265
LeftFoot -9.11788 0.0636035 -2.4372
LeftToes 1.53707e-010 -1.11459e-010 1.58109e-011
137
root 16.3979 39.6301 3.47256 -87.9962 87.9502 -81.8147
RightUpLeg 12.0672 0.792561 1.11582
RightLeg 0.951031 5.87749 -1.31207
RightFoot -5.0031 -0.457396 6.46667
RightToes 4.07452e-010 -1.59028e-015 9.93923e-017
Spine -10.9932 -0.738681 -2.37303
Spine1 -3.81383 -0.681924 -0.116038
HEad -3.38202 -10.5485 19.6429
LeftShoulder1 9.93923e-017 -0 1.22299e-017
LeftArm -151.195 -77.0116 128.685
LeftForeArm 24.8643 1.25825 5.68861
LeftHand -1.56844 1.00044 29.4283
RightShoulder 1.98785e-016 -4.96962e-017 1.55301e-017
RightArm -36.2085 78.7257 -13.8395
RightForeArm 29.549 8.06235 -11.1069
RightHand 7.66321 -21.6682 -38.1372
LeftUpLeg 8.06099 0.906583 1.34446
LeftLeg 8.83349 -4.26847 3.53612
LeftFoot -9.22205 0.0631597 -2.45991
LeftToes 1.53707e-010 -1.11459e-010 1.58109e-011
138
root 16.4788 39.6226 3.49138 -86.5886 87.9094 -80.3856
RightUpLeg 12.228 0.847892 1.20776
RightLeg 0.936165 5.83582 -1.34989
RightFoot -5.09446 -0.455573 6.51442
RightToes 4.07452e-010 -1.59028e-015 9.93923e-017
Spine -10.8592 -1.06861 -2.57423
Spine1 -4.30434 -1.0229 0.10404
HEad -0.749857 -9.97314 18.7269
LeftShoulder1 9.93923e-017 -0 1.22299e-017
LeftArm -143.636 -75.8009 122.893
LeftForeArm 23.6874 1.52185 6.42534
LeftHand -1.43653 1.01356 27.4092
RightShoulder 1.98785e-016 -4.96962e-017 1.55301e-017
RightArm -44.5923 78.0316 -23.2623
RightForeArm 29.0683 6.88311 -11.1974
RightHand 7.52675 -21.2075 -38.6519
LeftUpLeg 8.25928 1.05799 1.48083
LeftLeg 8.76213 -4.37299 3.4848
LeftFoot -9.32883 0.0620147 -2.50523
LeftToes 1.53707e-010 -1.11459e-010 1.58109e-011
139
root 16.5502 39.6137 3.50017 -81.9726 87.8625 -75.7589
RightUpLeg 12.3282 0.842929 1.20804
RightLeg 0.947027 5.98732 -1.35019
RightFoot -5.20586 -0.448224 6.50004
RightToes 4.07452e-010 -1.59028e-015 9.93923e-017
Spine -11.3147 -1.2994 -2.66988
Spine1 -3.97453 -1.24887 0.19151
HEad 1.65445 -9.25504 18.3589
LeftShoulder1 9.93923e-017 -0 1.22299e-017
LeftArm -138.671 -74.2969 119.192
LeftForeArm 22.7573 1.79721 7.2242
LeftHand -1.3736 0.87707 25.5553
RightShoulder 1.98785e-016 -4.96962e-017 1.55301e-017
RightArm -51.8179 77.0342 -31.6442
RightForeArm 27.294 5.73771 -11.1799
RightHand 7.56882 -21.1057 -39.2227
LeftUpLeg 8.43165 1.08529 1.50365
LeftLeg 8.71899 -4.18506 3.50956
LeftFoot -9.41459 0.0618953 -2.56267
LeftToes 1.53707e-010 -1.11459e-010 1.58109e-011
